<svg t="1780633414006" class="icon" viewBox="0 0 1024 1024" version="1.1" xmlns="http://www.w3.org/2000/svg" p-id="14710" width="200" height="200"><path d="M643.413333 457.386667c49.493333 0 95.573333 18.773333 129.706667 52.906666l34.133333 34.133334c69.973333-30.72 122.88-92.16 141.653334-167.253334 10.24-40.96 8.533333-81.92 0-117.76-5.12-18.773333-29.013333-25.6-42.666667-11.946666l-119.466667 119.466666h-131.413333v-129.706666l119.466667-119.466667c13.653333-13.653333 6.826667-37.546667-11.946667-42.666667-37.546667-8.533333-76.8-10.24-117.76 0-95.573333 22.186667-170.666667 104.106667-186.026667 201.386667-1.706667 13.653333-3.413333 29.013333-3.413333 42.666667l143.36 143.36c15.36-3.413333 30.72-5.12 44.373333-5.12z m90.453334 93.866666c-40.96-40.96-98.986667-47.786667-148.48-23.893333L399.36 341.333333v-107.52L179.2 68.266667 68.266667 177.493333l165.546666 220.16H341.333333l184.32 184.32c-23.893333 47.786667-15.36 107.52 23.893334 148.48l203.093333 203.093334c25.6 25.6 66.56 25.6 92.16 0l92.16-92.16c25.6-25.6 25.6-66.56 0-92.16L733.866667 551.253333z m-271.36 49.493334l-102.4-102.4L102.4 756.053333c-46.08 46.08-46.08 119.466667 0 165.546667 22.186667 22.186667 52.906667 34.133333 81.92 34.133333s59.733333-11.946667 81.92-34.133333l206.506667-206.506667c-13.653333-35.84-18.773333-75.093333-10.24-114.346666zM179.2 885.76c-22.186667 0-40.96-18.773333-40.96-40.96 0-22.186667 18.773333-40.96 40.96-40.96s40.96 18.773333 40.96 40.96c0 22.186667-18.773333 40.96-40.96 40.96z" p-id="14711"></path></svg>